<?xml version="1.0" encoding="utf-8"?>
<!-- Generator: Adobe Illustrator 18.1.1, SVG Export Plug-In . SVG Version: 6.00 Build 0)  -->
<svg version="1.1" id="Layer_1" xmlns="http://www.w3.org/2000/svg" xmlns:xlink="http://www.w3.org/1999/xlink" x="0px" y="0px"
	 viewBox="0 0 1190.6 841.9" enable-background="new 0 0 1190.6 841.9" xml:space="preserve">
<g>
	<g>
		<g>
			<path fill="#00375C" d="M209.4,719.1c0,29,23.6,52.6,52.6,52.6h280.6c29,0,52.6-23.6,52.6-52.6V596.3H209.4V719.1z"/>
			<path fill="#00375C" d="M998.7,175.4H869.2l-20.5-41.1c-9-17.9-27-29.1-47.1-29.1h-80.7l-59.3-19.7
				c-30.4-10.2-62.2-15.3-94.3-15.3H226.9c-29,0-52.6,23.6-52.6,52.6v140.3c0,29,23.6,52.6,52.6,52.6h84.8l-30.9,200.7l-59.7,44.8
				h360.2l-107-45.8l11.9-77.4c1.3,0.3,2.6,0.5,3.8,0.5c7.9,0,15-5.3,17-13.3l17.5-70.2c2.3-9.4-3.4-18.9-12.8-21.3
				c-3.3-0.8-6.6-0.4-9.6,0.6l2.9-18.7h62.2c32.1,0,63.8-5.2,94.3-15.3l59.3-19.7h80.7c20.1,0,38.1-11.2,47.1-29.1l20.5-41.1h129.5
				c9.7,0,17.5-7.9,17.5-17.5C1016.2,183.3,1008.4,175.4,998.7,175.4z M367.3,245.6H262c-9.7,0-17.5-7.9-17.5-17.5
				s7.9-17.5,17.5-17.5h105.2c9.7,0,17.5,7.9,17.5,17.5C384.8,237.7,376.9,245.6,367.3,245.6z M367.3,175.4H262
				c-9.7,0-17.5-7.9-17.5-17.5c0-9.7,7.9-17.5,17.5-17.5h105.2c9.7,0,17.5,7.9,17.5,17.5C384.8,167.5,376.9,175.4,367.3,175.4z
				 M735.6,228c0,9.7-7.9,17.5-17.5,17.5c-9.7,0-17.5-7.9-17.5-17.5v-70.2c0-9.7,7.9-17.5,17.5-17.5c9.7,0,17.5,7.9,17.5,17.5V228z"
				/>
		</g>
	</g>
</g>
</svg>
