<?xml version="1.0" encoding="utf-8"?>
<!-- Generator: Adobe Illustrator 18.1.1, SVG Export Plug-In . SVG Version: 6.00 Build 0)  -->
<svg version="1.1" id="Layer_1" xmlns="http://www.w3.org/2000/svg" xmlns:xlink="http://www.w3.org/1999/xlink" x="0px" y="0px"
	 viewBox="0 0 1190.6 841.9" enable-background="new 0 0 1190.6 841.9" xml:space="preserve">
<g>
	<g>
		<rect x="168.4" y="203.6" fill="#000300" stroke="#231F20" stroke-miterlimit="10" width="760.6" height="361.3"/>
		<rect x="212.2" y="236.6" fill="#FFFFFF" stroke="#231F20" stroke-miterlimit="10" width="15.2" height="283.1"/>
		<rect x="253" y="236.6" fill="#FFFFFF" stroke="#231F20" stroke-miterlimit="10" width="15.2" height="283.1"/>
		<rect x="414.8" y="236.6" fill="#FFFFFF" stroke="#231F20" stroke-miterlimit="10" width="15.2" height="283.1"/>
		<rect x="454.3" y="236.6" fill="#FFFFFF" stroke="#231F20" stroke-miterlimit="10" width="15.2" height="283.1"/>
		<rect x="334.4" y="236.6" fill="#FFFFFF" stroke="#231F20" stroke-miterlimit="10" width="15.2" height="283.1"/>
		<rect x="292.9" y="236.6" fill="#FFFFFF" stroke="#231F20" stroke-miterlimit="10" width="15.2" height="283.1"/>
		<rect x="375" y="236.6" fill="#FFFFFF" stroke="#231F20" stroke-miterlimit="10" width="15.2" height="283.1"/>
		<rect x="867.2" y="236.6" fill="#FFFFFF" stroke="#231F20" stroke-miterlimit="10" width="15.2" height="283.1"/>
		<rect x="826.2" y="236.6" fill="#FFFFFF" stroke="#231F20" stroke-miterlimit="10" width="15.2" height="283.1"/>
		<rect x="785.3" y="236.6" fill="#FFFFFF" stroke="#231F20" stroke-miterlimit="10" width="15.2" height="283.1"/>
		<rect x="744.3" y="236.6" fill="#FFFFFF" stroke="#231F20" stroke-miterlimit="10" width="15.2" height="283.1"/>
		<rect x="702.3" y="236.6" fill="#FFFFFF" stroke="#231F20" stroke-miterlimit="10" width="15.2" height="283.1"/>
		<rect x="659.9" y="236.6" fill="#FFFFFF" stroke="#231F20" stroke-miterlimit="10" width="15.2" height="283.1"/>
		<rect x="618.3" y="236.6" fill="#FFFFFF" stroke="#231F20" stroke-miterlimit="10" width="15.2" height="283.1"/>
		<rect x="576.9" y="236.6" fill="#FFFFFF" stroke="#231F20" stroke-miterlimit="10" width="15.2" height="283.1"/>
		<rect x="536.3" y="236.6" fill="#FFFFFF" stroke="#231F20" stroke-miterlimit="10" width="15.2" height="283.1"/>
		<rect x="495.2" y="236.6" fill="#FFFFFF" stroke="#231F20" stroke-miterlimit="10" width="15.2" height="283.1"/>
	</g>
	<g>
		<g id="Fan">
			<path fill="#A9A9A9" stroke="#A9A9A9" stroke-miterlimit="10" d="M675.8,220.8c-90,0-179.9,0-269.9,0
				c-14.5,0-26.3,11.9-26.3,26.7c0,91.2,0,182.4,0,273.5c0,14.7,11.8,26.7,26.3,26.7c90,0,179.9,0,269.9,0
				c14.5,0,26.3-11.9,26.3-26.7c0-91.2,0-182.4,0-273.5C702.1,232.7,690.4,220.8,675.8,220.8z M405.9,240.8c3.6,0,6.6,3,6.6,6.7
				s-2.9,6.7-6.6,6.7s-6.6-3-6.6-6.7S402.3,240.8,405.9,240.8z M405.9,527.7c-3.6,0-6.6-3-6.6-6.7c0-3.7,2.9-6.7,6.6-6.7
				s6.6,3,6.6,6.7C412.5,524.7,409.6,527.7,405.9,527.7z M540.9,517c-72.3,0-131-59.4-131-132.8s58.6-132.8,131-132.8
				s131,59.4,131,132.8S613.2,517,540.9,517z M675.8,527.7c-3.6,0-6.6-3-6.6-6.7c0-3.7,2.9-6.7,6.6-6.7s6.6,3,6.6,6.7
				C682.4,524.7,679.5,527.7,675.8,527.7z M675.8,254.1c-3.6,0-6.6-3-6.6-6.7s2.9-6.7,6.6-6.7s6.6,3,6.6,6.7
				S679.5,254.1,675.8,254.1z"/>
			<path fill="#A9A9A9" stroke="#A9A9A9" stroke-miterlimit="10" d="M656.3,360.1c-0.7-3.2-2-5.5-4.5-7.6
				c-19.9-16.7-47.6-15.6-83,3.4c-2.3-2.3-4.8-4.3-7.6-6c24.4-22.2,46.6-31.5,66.7-27.9c5.9,1,10-5.8,6.3-10.6
				c-8.1-10.7-17.4-19.4-28.5-26.8c-2.7-1.8-5.3-2.4-8.5-2.1c-25.8,2.5-44.5,23.1-56.3,61.8c-3.3,0-6.4,0.4-9.6,1.2
				c1.8-33.1,11-55.7,27.7-67.5c4.9-3.5,3-11.3-2.9-12.1c-13.2-1.7-25.8-1.3-38.9,1.5c-3.2,0.7-5.4,2-7.5,4.6
				c-16.5,20.2-15.4,48.2,3.3,84.1c-2.3,2.3-4.3,4.9-5.9,7.7c-21.9-24.7-31.1-47.2-27.5-67.6c1-6-5.7-10.1-10.5-6.4
				c-10.6,8.2-19.2,17.6-26.5,28.9c-1.8,2.7-2.4,5.3-2.1,8.6c2.4,26.1,22.8,45.1,61,57.1c0,3.3,0.4,6.5,1.2,9.7
				c-32.7-1.8-54.9-11.1-66.6-28c-3.5-5-11.1-3.1-11.9,3c-1.7,13.4-1.2,26.2,1.4,39.4c0.7,3.2,2,5.5,4.5,7.6
				c19.9,16.7,47.6,15.6,83-3.4c2.3,2.3,4.8,4.3,7.6,6c-24.4,22.2-46.6,31.5-66.7,27.9c-5.9-1-10,5.8-6.3,10.6
				c8.1,10.7,17.4,19.4,28.5,26.8c2.7,1.8,5.3,2.4,8.5,2.1c25.8-2.5,44.5-23.1,56.3-61.8c3.3,0,6.4-0.4,9.6-1.2
				c-1.8,33.1-11,55.7-27.7,67.5c-4.9,3.5-3,11.3,2.9,12.1c13.2,1.7,25.8,1.3,38.9-1.5c3.2-0.7,5.4-2,7.5-4.6
				c16.5-20.2,15.4-48.2-3.3-84.1c2.3-2.3,4.3-4.9,5.9-7.7c21.9,24.7,31.1,47.2,27.5,67.6c-1,6,5.7,10.1,10.5,6.4
				c10.6-8.2,19.2-17.6,26.5-28.9c1.8-2.7,2.4-5.3,2.1-8.6c-2.4-26.1-22.8-45.1-61-57.1c0-3.3-0.4-6.5-1.2-9.7
				c32.7,1.8,54.9,11.1,66.6,28c3.5,5,11.1,3.1,11.9-3C659.4,386.2,659,373.4,656.3,360.1z M540.9,417.6
				c-18.2,0-32.9-14.9-32.9-33.4s14.7-33.4,32.9-33.4c18.2,0,32.9,14.9,32.9,33.4S559,417.6,540.9,417.6z"/>
		</g>
	</g>
</g>
</svg>
