<?xml version="1.0" encoding="utf-8"?>
<!-- Generator: Adobe Illustrator 18.1.1, SVG Export Plug-In . SVG Version: 6.00 Build 0)  -->
<svg version="1.1" id="Layer_1" xmlns="http://www.w3.org/2000/svg" xmlns:xlink="http://www.w3.org/1999/xlink" x="0px" y="0px"
	 viewBox="0 0 1190.6 841.9" enable-background="new 0 0 1190.6 841.9" xml:space="preserve">
<rect x="139.8" y="146.4" fill="#1E90FF" stroke="#FFFFFF" stroke-miterlimit="10" width="253.2" height="364.9"/>
<rect x="109.6" y="104.9" stroke="#231F20" stroke-miterlimit="10" width="315.6" height="41.6"/>
<rect x="94.4" y="511.4" stroke="#231F20" stroke-miterlimit="10" width="344.2" height="45.5"/>
<path fill="#9D9D9D" stroke="#9D9D9D" stroke-miterlimit="10" d="M188,557.3l-5.8-0.9c-12.6-2-21.1-13.9-19.1-26.5h0
	c2-12.6,13.9-21.1,26.5-19.1l5.8,0.9c12.6,2,21.1,13.9,19.1,26.5v0C212.4,550.8,200.6,559.4,188,557.3z"/>
<path fill="#9D9D9D" stroke="#9D9D9D" stroke-miterlimit="10" d="M336.2,557.3l-5.8-0.9c-12.6-2-21.1-13.9-19.1-26.5l0,0
	c2-12.6,13.9-21.1,26.5-19.1l5.8,0.9c12.6,2,21.1,13.9,19.1,26.5l0,0C360.6,550.8,348.8,559.4,336.2,557.3z"/>
</svg>
